# xmcd
#
# Track frame offsets: 
#        150
#        15910
#        29892
#        46408
#        58148
#        73067
#        85106
#        97761
#        112858
#        126708
#        145005
#        164531
#
# Disc length: 2359 seconds
#
# Revision: 1
# Processed by: cddbd v1.5.1PL0 Copyright (c) Steve Scherf et al.
# Submitted via: ExactAudioCopy v0.95a5
#
DISCID=a209350c
DTITLE=Bukasovy masiv - Nic nam neni svate
DYEAR=1998
DGENRE=Humour
TTITLE0=TransSexUral
TTITLE1=Anca, to je Vam kus
TTITLE2=Na Dunajsku Stredu
TTITLE3=Opatrno s tym sportem
TTITLE4=Nebola z Hawaja, bola ze Samorina
TTITLE5=To hadam, dneska kazdi vi
TTITLE6=Abstak blues
TTITLE7=Hele vole, Milko kravo
TTITLE8=Boze, jak strasne lubim
TTITLE9=Pod staru ceresnu
TTITLE10=Ten vlak uz nedobehnem
TTITLE11=Akurat ked sem lital, zacal nalet (stupid remix)
EXTD=
EXTT0=
EXTT1=
EXTT2=
EXTT3=
EXTT4=
EXTT5=
EXTT6=
EXTT7=
EXTT8=
EXTT9=
EXTT10=
EXTT11=
PLAYORDER=
